<svg id="Layer_1" data-name="Layer 1" xmlns="http://www.w3.org/2000/svg" viewBox="0 0 100 100"><defs><style>.cls-1{fill:#c5cbd1;}</style></defs><title>ClearAnimation</title><path class="cls-1" d="M51,0H43.54l-.08,0h0l-.12,0h-.61l-.12,0h0l-.12,0h0l-.12,0h0l-.15,0h0L42,.81h0A49.59,49.59,0,0,0,30.59,4.35h0l-.27.12h0l-.11,0h0l-.1,0h0l-.07,0h0l0,0h0l-.08,0h-.06l-.07,0h-.06l-.06,0H29.5l-.05,0h-.06l-.07,0h-.6l0,0h-.07l0,0h0l0,0h-.07l0,0h-.08l0,0h0l-.06,0h0l0,0h0l-.07,0h0l0,0h0l0,0h0l-.06,0h0l0,0h0l-.06,0h0l0,0h0l0,0h0l-.07,0h0l0,0h0l-.06,0h0l0,0h0l-.06,0h0l-.1.06h0l0,0h0a.31.31,0,0,0-.1,0h0a48.66,48.66,0,0,0-5.49,3.45l8.79,12.16A34.75,34.75,0,0,1,51,15V0ZM3.55,34.22a50.35,50.35,0,0,0-2.39,11.9h0c0,.05,0,.1,0,.16h0v.15h0s0,.07,0,.11h0v0h0v.12h0v0h0v.12h0v0h0V47h0v0h0v0h0a.22.22,0,0,0,0,.08h0v0h0v0h0v.08h0v0h0v0h0v0h0v0h0v0h0v0h0v0h0v0h0v0h0v0h0v0h0v0h0v0h0v0h0s0,.05,0,.08h0v0h0v0h0v0h0v0h0v0h0v0H1v0H1v0H1v0H1v0H1v0H1v0H1v0H1v0H1v0H1v0H1v0H1v0H1v0H1v0H1v0H1v0H1v0H1v0H1v0H1v0H1v0H1v0H1v0H1v0H1v0H1v0H1v0H1v0H1v0H1v0H1v0H1v0H1v0H1v.06H1v0H1v0H1v.06H1v0H1v0H1v0H1v0H1v0H1v0H1v0H1v0H1v0H1v0H1v0H1v0H1v0H1v0H1v.07H1v0H1v0H1v.06H1v0H1v.06H1v0H1v0H1v0H1v0H1v0H1v0H1v0H1v0H1v0H1v0H1v0H1v0H1v0H1v0H1v0H1v0H1v0H1v0H1v0H1v0H1v0H1v0H1v.07H1v0H1v.07h0v0h0v.07h0v0h0v.07h0v0h0v.09h0v.11h0v.11h0v.11h0v0h0v0h0v0h0v0h0v0h0v0h0v.08h0v0h0V53h0v0h0v0h0v0h0v0h0v0h0v.08h0v0h0a.19.19,0,0,0,0,.08h0v0h0v.08h0v0h0v.08h0v0h0v.09h0v0h0a.28.28,0,0,1,0,.09h0v0h0V54h0v.12h0a.49.49,0,0,1,0,.12h0a.49.49,0,0,1,0,.12h0a50,50,0,0,0,1.57,8.8h0l0,.11h0l0,.11h0l0,.08h0v0h0v0h0l0,.07h0v0h0l0,.07h0v0h0v0H3v.06H3V64H3v0H3v0H3v.06H3v0h0v.06h0v0h0v0h0v0h0v0h0v0h0v0h0v0h0v0h0v0h0a.19.19,0,0,1,0,.07h0v0h0l0,.07h0v0h0a.64.64,0,0,0,0,.07h0l0,.11,14.32-4.49A35.16,35.16,0,0,1,17.79,39L3.55,34.22ZM30.07,78.05l-9,12A49.75,49.75,0,0,0,50.17,100l.25-15a34.72,34.72,0,0,1-20.35-7Zm54-16.44A35.36,35.36,0,0,1,71,78.75l8.58,12.3.65-.46h0l.1-.07h0l.09-.07h0l0,0h0l.1-.07h0l0,0h0l.09-.07h.05l.07-.05h.06L81,90h.08l0,0h.09l0,0h.09l0,0h.11l0,0h.06v0h.06l0,0h.09l0,0h.06l0,0h0l0,0h0v0h0l0,0h0l0,0h0l0,0h.07l.05,0h0l0,0h0l0,0h0l0,0h0l0,0h0l0,0h0l0,0h0l0,0h0l0,0h0l0,0h0l0-.05h0l0,0h0l0,0h0l.06,0h0l0,0h0l.11-.09h0l0,0h0l.08-.07h0l0,0h0l.12-.1h0l.11-.09h0l0,0h0a.52.52,0,0,0,.11-.1h0A50.14,50.14,0,0,0,98.21,66.58l-14.16-5ZM81.63,10.46,72.44,22.32A35.36,35.36,0,0,1,84.6,40.08L99,35.84A50.12,50.12,0,0,0,81.63,10.46ZM51,0V15l1.19,0,.5-15H52.3l-.92,0H51Z"/></svg>