<svg id="Layer_1" data-name="Layer 1" xmlns="http://www.w3.org/2000/svg" viewBox="0 0 100 100"><defs><style>.cls-1{fill:#c5cbd1;}</style></defs><path class="cls-1" d="M89.45,15H70V11.69C70,5.23,64.2,0,57.05,0H43C35.8,0,30,5.23,30,11.69V15H10.55A3.06,3.06,0,0,0,7.5,18.05V22A3.06,3.06,0,0,0,10.55,25h78.9a3.06,3.06,0,0,0,3-3.05v-3.9A3.06,3.06,0,0,0,89.45,15Zm-49.7-3.31c0-.79,1.24-1.94,3.2-1.94h14.1c2,0,3.2,1.15,3.2,1.94V15H39.75Z"/><path class="cls-1" d="M83.1,33H16.9a3.79,3.79,0,0,0-3.75,4.36L22,96.77A3.79,3.79,0,0,0,25.77,100H74.23A3.79,3.79,0,0,0,78,96.77l8.87-59.41A3.79,3.79,0,0,0,83.1,33ZM34.36,90,34,90a3,3,0,0,1-3-2.64l-5-41a3,3,0,0,1,6-.72l5,41A3,3,0,0,1,34.36,90ZM53,87a3,3,0,0,1-6,0V46a3,3,0,0,1,6,0ZM74,46.36l-5,41A3,3,0,0,1,66,90l-.36,0A3,3,0,0,1,63,86.64l5-41a3,3,0,1,1,6,.72Z"/></svg>