<svg xmlns="http://www.w3.org/2000/svg" viewBox="0 0 100 100">
  <title>EraseMode_On</title>
  <g id="Cover">
    <g>
      <path d="M44,70.22a13.16,13.16,0,0,0,11.88,3.59l39.51-8A7,7,0,0,0,100,62.47v-.16a6.74,6.74,0,0,0-2-4.74L89.41,49,33.92,60.09Z" style="fill: #e88e34"/>
      <path d="M2.57,22.63c-.76,2.5,0,6.09,1.56,7.68L29.05,55.22a11.9,11.9,0,0,1,1.29-.51l.33-.09L84.32,43.9,58.08,17.66a16.15,16.15,0,0,0-14.59-4.42l-38,7.6a6.81,6.81,0,0,0-2.73,1.22A4.23,4.23,0,0,0,2.57,22.63Z" style="fill: #e88e34"/>
      <path d="M25.13,59.79,0,34.67v2.8a6.77,6.77,0,0,0,2,5L25.13,65.55Z" style="fill: #e88e34"/>
      <path d="M96.61,71.64,57.11,79.7a19.47,19.47,0,0,1-3.79.37A19.11,19.11,0,0,1,39.8,74.46L31.13,65.8v5.75L41.92,82.34a16.15,16.15,0,0,0,14.59,4.42l38-7.6A6.84,6.84,0,0,0,100,72.64V70.42A12.85,12.85,0,0,1,96.61,71.64Z" style="fill: #e88e34"/>
    </g>
  </g>
</svg>
