<svg id="Layer_1" data-name="Layer 1" xmlns="http://www.w3.org/2000/svg" xmlns:xlink="http://www.w3.org/1999/xlink" viewBox="0 0 100 100"><defs><style>.cls-1{fill:url(#New_Gradient_Swatch_1);}.cls-2{fill:url(#linear-gradient);}</style><linearGradient id="New_Gradient_Swatch_1" x1="50" y1="100" x2="50" gradientUnits="userSpaceOnUse"><stop offset="0" stop-color="#4c5156"/><stop offset="1" stop-color="#1a1b1c"/></linearGradient><linearGradient id="linear-gradient" x1="50" y1="75" x2="50" y2="25" gradientUnits="userSpaceOnUse"><stop offset="0" stop-color="#1a1b1c"/><stop offset="1" stop-color="#4c5156"/></linearGradient></defs><title>Hidden</title><path class="cls-1" d="M50,6.67A43.33,43.33,0,1,1,6.67,50,43.38,43.38,0,0,1,50,6.67M50,0a50,50,0,1,0,50,50A50,50,0,0,0,50,0Z"/><path class="cls-2" d="M50,31.67A18.33,18.33,0,1,1,31.67,50,18.35,18.35,0,0,1,50,31.67M50,25A25,25,0,1,0,75,50,25,25,0,0,0,50,25Z"/></svg>