<svg id="Layer_1" data-name="Layer 1" xmlns="http://www.w3.org/2000/svg" xmlns:xlink="http://www.w3.org/1999/xlink" viewBox="0 0 100 100"><defs><style>.cls-1{fill:#e88e34;}.cls-2{fill:none;}.cls-3{fill:url(#linear-gradient);}.cls-4{fill:#1a1b1c;}.cls-5{fill:#272a2b;}.cls-6{fill:#4c5156;}.cls-7{fill:url(#linear-gradient-2);}</style><linearGradient id="linear-gradient" x1="50" y1="100" x2="50" gradientUnits="userSpaceOnUse"><stop offset="0" stop-color="#272a2b"/><stop offset="1" stop-color="#1a1b1c"/></linearGradient><linearGradient id="linear-gradient-2" x1="50" y1="44.58" x2="50" y2="20.77" gradientUnits="userSpaceOnUse"><stop offset="0" stop-color="#272a2b"/><stop offset="1" stop-color="#4c5156"/></linearGradient></defs><title>Locked</title><path class="cls-1" d="M76.79,45.64V33.37c0-15-12.29-27.76-27.3-27.48A26.79,26.79,0,0,0,23.21,32.67v13H14.28V94.12H85.72V45.64ZM61.91,44.58H38.09V32.67a11.91,11.91,0,0,1,23.82,0Z"/><path class="cls-2" d="M76.79,33.37c0-14.85-12-27.49-26.82-27.49h-.48A26.79,26.79,0,0,0,23.21,32.67v13H14.28V94.12H85.72V45.64H76.79ZM56,38.7H44v-6a6,6,0,0,1,12,0Z"/><path class="cls-3" d="M23.21,32.67A26.79,26.79,0,0,1,49.49,5.89H50c14.8,0,26.82,12.64,26.82,27.49V45.64l5.88-5.88V33.37C82.67,15,68,0,50,0h-.59A32.82,32.82,0,0,0,17.33,32.67v7.09l5.88,5.88Z"/><polygon class="cls-4" points="85.72 45.64 91.6 39.76 85.72 39.76 82.67 39.76 76.79 45.64 85.72 45.64"/><polygon class="cls-4" points="23.21 45.64 17.33 39.76 14.28 39.76 8.4 39.76 14.28 45.64 23.21 45.64"/><polygon class="cls-5" points="85.72 45.64 85.72 94.12 91.6 100 91.6 94.12 91.6 45.64 91.6 39.76 85.72 45.64"/><polygon class="cls-5" points="14.28 45.64 8.4 39.76 8.4 45.64 8.4 94.12 8.4 100 14.28 94.12 14.28 45.64"/><polygon class="cls-6" points="14.28 94.12 8.4 100 14.28 100 85.72 100 91.6 100 85.72 94.12 14.28 94.12"/><path class="cls-2" d="M50,26.65a6,6,0,0,0-6,6v6H56v-6A6,6,0,0,0,50,26.65Z"/><polygon class="cls-4" points="43.98 38.7 38.09 44.58 61.91 44.58 56.02 38.7 43.98 38.7"/><path class="cls-7" d="M50,20.77a11.92,11.92,0,0,0-11.91,11.9V44.58L44,38.7v-6a6,6,0,0,1,12,0v6l5.89,5.88V32.67A11.92,11.92,0,0,0,50,20.77Z"/></svg>