<svg xmlns="http://www.w3.org/2000/svg" xmlns:xlink="http://www.w3.org/1999/xlink" viewBox="0 0 200 150"><defs><linearGradient id="New_Gradient_Swatch_1" x1="100" y1="150" x2="100" gradientUnits="userSpaceOnUse"><stop offset="0" stop-color="#4c5156"/><stop offset="1" stop-color="#1a1b1c"/></linearGradient><linearGradient id="linear-gradient" x1="100" y1="146.88" x2="100" y2="3.12" gradientUnits="userSpaceOnUse"><stop offset="0.71" stop-opacity="0"/><stop offset="0.96" stop-opacity="0.52"/><stop offset="1"/></linearGradient><linearGradient id="linear-gradient-2" x1="-464.94" y1="1243.94" x2="-464.94" y2="1100.19" gradientTransform="translate(-364.94 1247.06) rotate(180)" xlink:href="#linear-gradient"/></defs><title>Logo_Panel</title><g style="isolation:isolate"><g id="Cover"><rect x="3.12" y="3.12" width="193.75" height="143.75" rx="54.06" style="fill:#3c3f42"/><path d="M142.82,3.12a54.07,54.07,0,0,1,54.06,54.06V92.82a54.07,54.07,0,0,1-54.06,54.06H57.18A54.07,54.07,0,0,1,3.12,92.82V57.18A54.07,54.07,0,0,1,57.18,3.12h85.64m0-3.12H57.18A57.24,57.24,0,0,0,0,57.18V92.82A57.24,57.24,0,0,0,57.18,150h85.64A57.24,57.24,0,0,0,200,92.82V57.18A57.24,57.24,0,0,0,142.82,0Z" style="fill:url(#New_Gradient_Swatch_1)"/><polygon points="153.37 89.24 80.43 16.3 95.25 60.76 46.63 60.76 119.57 133.7 104.75 89.24 153.37 89.24" style="fill:#e88e34;opacity:0.8"/><rect x="3.12" y="72.84" width="193.75" height="2.16" style="fill:#272a2b"/><rect x="3.12" y="75" width="193.75" height="2.16" style="fill:#4c5156"/><g style="opacity:0.25;mix-blend-mode:overlay"><rect x="3.12" y="3.12" width="193.75" height="143.75" rx="54.06" style="fill:url(#linear-gradient)"/></g><g style="opacity:0.25;mix-blend-mode:overlay"><rect x="3.12" y="3.12" width="193.75" height="143.75" rx="54.06" style="fill:url(#linear-gradient-2)"/></g></g></g></svg>