<svg id="Layer_1" data-name="Layer 1" xmlns="http://www.w3.org/2000/svg" xmlns:xlink="http://www.w3.org/1999/xlink" viewBox="0 0 200 150"><defs><style>.cls-1{fill:#3c3f42;}.cls-2{fill:url(#New_Gradient_Swatch_1);}</style><linearGradient id="New_Gradient_Swatch_1" x1="100" y1="150" x2="100" gradientUnits="userSpaceOnUse"><stop offset="0" stop-color="#4c5156"/><stop offset="1" stop-color="#1a1b1c"/></linearGradient></defs><title>Logo_Cover</title><path class="cls-1" d="M0,0V150H200V0ZM196.88,92.82a54.07,54.07,0,0,1-54.06,54.06H57.19A54.07,54.07,0,0,1,3.12,92.82V57.18A54.07,54.07,0,0,1,57.19,3.12h85.63a54.07,54.07,0,0,1,54.06,54.06Z"/><path class="cls-2" d="M142.82,3.12a54.07,54.07,0,0,1,54.06,54.06V92.82a54.07,54.07,0,0,1-54.06,54.06H57.18A54.07,54.07,0,0,1,3.12,92.82V57.18A54.07,54.07,0,0,1,57.18,3.12h85.64m0-3.12H57.18A57.24,57.24,0,0,0,0,57.18V92.82A57.24,57.24,0,0,0,57.18,150h85.64A57.24,57.24,0,0,0,200,92.82V57.18A57.24,57.24,0,0,0,142.82,0Z"/></svg>