<svg id="Layer_1" data-name="Layer 1" xmlns="http://www.w3.org/2000/svg" xmlns:xlink="http://www.w3.org/1999/xlink" viewBox="0 0 200 150"><defs><style>.cls-1{fill:#3c3f42;}.cls-2{fill:#1a1b1c;}.cls-3,.cls-4{fill:none;stroke-miterlimit:10;}.cls-3{stroke:#272a2b;}.cls-4{stroke:#303335;stroke-width:2px;}.cls-5{fill:url(#New_Gradient_Swatch_1);}</style><linearGradient id="New_Gradient_Swatch_1" x1="100" y1="150" x2="100" gradientUnits="userSpaceOnUse"><stop offset="0" stop-color="#4c5156"/><stop offset="1" stop-color="#1a1b1c"/></linearGradient></defs><title>Logo_BG</title><rect class="cls-1" width="200" height="150"/><rect class="cls-2" x="3.12" y="3.12" width="193.75" height="143.75" rx="54.06"/><ellipse class="cls-3" cx="100" cy="75" rx="14.21" ry="71.88"/><ellipse class="cls-3" cx="100" cy="75" rx="42.76" ry="71.88"/><ellipse class="cls-3" cx="100" cy="75" rx="77.09" ry="71.88"/><ellipse class="cls-3" cx="100" cy="75" rx="96.88" ry="71.88"/><ellipse class="cls-3" cx="100" cy="75" rx="96.88" ry="12.33"/><ellipse class="cls-3" cx="100" cy="75" rx="96.88" ry="32.77"/><ellipse class="cls-3" cx="100" cy="75" rx="96.88" ry="57.2"/><ellipse class="cls-3" cx="100" cy="75" rx="96.88" ry="71.88"/><line class="cls-4" x1="3.12" y1="75" x2="196.88" y2="75"/><line class="cls-4" x1="100" y1="3.12" x2="100" y2="146.88"/><path class="cls-5" d="M142.82,3.12a54.07,54.07,0,0,1,54.06,54.06V92.82a54.07,54.07,0,0,1-54.06,54.06H57.18A54.07,54.07,0,0,1,3.12,92.82V57.18A54.07,54.07,0,0,1,57.18,3.12h85.64m0-3.12H57.18A57.24,57.24,0,0,0,0,57.18V92.82A57.24,57.24,0,0,0,57.18,150h85.64A57.24,57.24,0,0,0,200,92.82V57.18A57.24,57.24,0,0,0,142.82,0Z"/></svg>