<svg id="Layer_1" data-name="Layer 1" xmlns="http://www.w3.org/2000/svg" viewBox="0 0 100 100"><defs><style>.cls-1{fill:#c5cbd1;}</style></defs><title>Move_Off</title><polygon class="cls-1" points="59.17 22.13 50 12.96 40.83 22.13 34.35 15.65 50 0 65.65 15.65 59.17 22.13"/><polygon class="cls-1" points="84.35 65.65 77.87 59.17 87.04 50 77.87 40.83 84.35 34.35 100 50 84.35 65.65"/><polygon class="cls-1" points="50 100 34.35 84.35 40.83 77.87 50 87.04 59.17 77.87 65.65 84.35 50 100"/><polygon class="cls-1" points="15.65 65.65 0 50 15.65 34.35 22.13 40.83 12.96 50 22.13 59.17 15.65 65.65"/><rect class="cls-1" x="35.11" y="35.11" width="29.78" height="29.78"/></svg>